<svg width="18" height="18" viewBox="0 0 18 18" fill="none" xmlns="http://www.w3.org/2000/svg">
<path d="M13.3594 1.40625H12.6562V0.703125C12.6562 0.314789 12.3415 0 11.9531 0C11.5648 0 11.25 0.314789 11.25 0.703125V1.40625H5.625V0.703125C5.625 0.314789 5.31021 0 4.92188 0C4.53354 0 4.21875 0.314789 4.21875 0.703125V1.40625H3.51562C1.57711 1.40625 0 2.98336 0 4.92188V13.3594C0 15.2979 1.57711 16.875 3.51562 16.875H6.91534C7.30364 16.875 7.61846 16.5602 7.61846 16.1719C7.61846 15.7835 7.30364 15.4688 6.91534 15.4688H3.51562C2.35252 15.4688 1.40625 14.5225 1.40625 13.3594V7.03125H16.1719C16.5602 7.03125 16.875 6.71646 16.875 6.32812V4.92188C16.875 2.98336 15.2979 1.40625 13.3594 1.40625ZM15.4688 5.625H1.40625V4.92188C1.40625 3.75877 2.35252 2.8125 3.51562 2.8125H4.21875V3.51562C4.21875 3.90396 4.53354 4.21875 4.92188 4.21875C5.31021 4.21875 5.625 3.90396 5.625 3.51562V2.8125H11.25V3.51562C11.25 3.90396 11.5648 4.21875 11.9531 4.21875C12.3415 4.21875 12.6562 3.90396 12.6562 3.51562V2.8125H13.3594C14.5225 2.8125 15.4688 3.75877 15.4688 4.92188V5.625Z" fill="white"/>
<path d="M3.51562 9.84375C3.90395 9.84375 4.21875 9.52895 4.21875 9.14062C4.21875 8.7523 3.90395 8.4375 3.51562 8.4375C3.1273 8.4375 2.8125 8.7523 2.8125 9.14062C2.8125 9.52895 3.1273 9.84375 3.51562 9.84375Z" fill="white"/>
<path d="M6.32812 9.84375C6.71645 9.84375 7.03125 9.52895 7.03125 9.14062C7.03125 8.7523 6.71645 8.4375 6.32812 8.4375C5.9398 8.4375 5.625 8.7523 5.625 9.14062C5.625 9.52895 5.9398 9.84375 6.32812 9.84375Z" fill="white"/>
<path d="M3.51562 12.6562C3.90395 12.6562 4.21875 12.3415 4.21875 11.9531C4.21875 11.5648 3.90395 11.25 3.51562 11.25C3.1273 11.25 2.8125 11.5648 2.8125 11.9531C2.8125 12.3415 3.1273 12.6562 3.51562 12.6562Z" fill="white"/>
<path d="M6.32812 12.6562C6.71645 12.6562 7.03125 12.3415 7.03125 11.9531C7.03125 11.5648 6.71645 11.25 6.32812 11.25C5.9398 11.25 5.625 11.5648 5.625 11.9531C5.625 12.3415 5.9398 12.6562 6.32812 12.6562Z" fill="white"/>
<path d="M13.0781 8.15625C10.3642 8.15625 8.15625 10.3642 8.15625 13.0781C8.15625 15.792 10.3642 18 13.0781 18C15.792 18 18 15.792 18 13.0781C18 10.3642 15.792 8.15625 13.0781 8.15625ZM13.0781 16.5938C11.1396 16.5938 9.5625 15.0166 9.5625 13.0781C9.5625 11.1396 11.1396 9.5625 13.0781 9.5625C15.0167 9.5625 16.5938 11.1396 16.5938 13.0781C16.5938 15.0166 15.0167 16.5938 13.0781 16.5938Z" fill="white"/>
<path d="M14.4844 12.375H13.7812V11.6719C13.7812 11.2835 13.4665 10.9688 13.0781 10.9688C12.6898 10.9688 12.375 11.2835 12.375 11.6719V13.0781C12.375 13.4665 12.6898 13.7812 13.0781 13.7812H14.4844C14.8727 13.7812 15.1875 13.4665 15.1875 13.0781C15.1875 12.6898 14.8727 12.375 14.4844 12.375Z" fill="white"/>
</svg>
