<svg width="30" height="21" viewBox="0 0 30 21" fill="none" xmlns="http://www.w3.org/2000/svg">
<path d="M1.5 3H21C21.3978 3 21.7794 2.84196 22.0607 2.56066C22.342 2.27936 22.5 1.89782 22.5 1.5C22.5 1.10218 22.342 0.720645 22.0607 0.43934C21.7794 0.158036 21.3978 0 21 0H1.5C1.10217 0 0.720642 0.158036 0.439337 0.43934C0.158031 0.720645 -1.90735e-06 1.10218 -1.90735e-06 1.5C-1.90735e-06 1.89782 0.158031 2.27936 0.439337 2.56066C0.720642 2.84196 1.10217 3 1.5 3ZM-1.90735e-06 10.5C-1.90735e-06 10.1022 0.158031 9.72064 0.439337 9.43934C0.720642 9.15804 1.10217 9 1.5 9H28.5C28.8978 9 29.2794 9.15804 29.5607 9.43934C29.842 9.72064 30 10.1022 30 10.5C30 10.8978 29.842 11.2794 29.5607 11.5607C29.2794 11.842 28.8978 12 28.5 12H1.5C1.10217 12 0.720642 11.842 0.439337 11.5607C0.158031 11.2794 -1.90735e-06 10.8978 -1.90735e-06 10.5ZM-1.90735e-06 19.5C-1.90735e-06 19.1022 0.158031 18.7206 0.439337 18.4393C0.720642 18.158 1.10217 18 1.5 18H15C15.3978 18 15.7794 18.158 16.0607 18.4393C16.342 18.7206 16.5 19.1022 16.5 19.5C16.5 19.8978 16.342 20.2794 16.0607 20.5607C15.7794 20.842 15.3978 21 15 21H1.5C1.10217 21 0.720642 20.842 0.439337 20.5607C0.158031 20.2794 -1.90735e-06 19.8978 -1.90735e-06 19.5Z" fill="white"/>
</svg>
